<?xml version="1.0" standalone="no"?>
<!DOCTYPE svg PUBLIC "-//W3C//DTD SVG 20010904//EN"
 "http://www.w3.org/TR/2001/REC-SVG-20010904/DTD/svg10.dtd">
<svg version="1.0" xmlns="http://www.w3.org/2000/svg"
 width="296.000000pt" height="296.000000pt" viewBox="0 0 296.000000 296.000000"
 preserveAspectRatio="xMidYMid meet">
<metadata>
Created by potrace 1.14, written by Peter Selinger 2001-2017
</metadata>
<g transform="translate(0.000000,296.000000) scale(0.100000,-0.100000)"
fill="#000000" stroke="none">
<path d="M1368 2955 c-2 -1 -23 -5 -48 -8 -106 -14 -139 -20 -215 -38 -44 -11
-89 -23 -100 -28 -11 -5 -33 -14 -50 -21 -96 -39 -108 -45 -200 -95 -67 -36
-148 -88 -171 -110 -6 -5 -33 -28 -59 -50 -58 -48 -151 -144 -225 -232 -23
-27 -100 -152 -100 -162 0 -6 -4 -11 -10 -11 -5 0 -10 -9 -10 -20 0 -11 -4
-20 -8 -20 -6 0 -28 -42 -36 -70 -1 -3 -9 -21 -19 -40 -23 -48 -57 -150 -50
-150 3 0 1 -6 -5 -12 -12 -16 -30 -99 -49 -228 -10 -69 -10 -289 0 -355 4 -27
9 -66 12 -86 2 -19 9 -47 14 -61 5 -14 8 -28 5 -30 -8 -9 59 -193 104 -288 75
-157 167 -286 287 -405 80 -79 194 -174 225 -188 8 -4 29 -16 45 -27 84 -55
278 -140 380 -166 40 -10 44 -11 50 -14 3 -1 14 -4 25 -5 11 -1 21 -3 23 -4 1
-2 13 -4 27 -7 14 -2 39 -6 55 -9 17 -4 100 -8 185 -10 140 -3 191 1 300 21
19 4 44 8 55 9 11 1 28 6 37 10 9 4 22 4 28 0 5 -3 10 1 10 10 0 9 5 13 10 10
23 -14 240 79 370 158 87 53 180 127 262 210 79 78 198 226 198 244 0 7 3 13
8 13 4 0 18 21 31 48 14 26 31 55 39 65 9 9 12 17 9 17 -3 0 5 21 18 48 28 57
76 182 69 182 -2 0 0 8 5 18 5 9 11 31 14 49 3 17 7 36 10 40 3 5 8 32 12 61
3 28 10 73 14 99 10 52 7 322 -4 363 -6 23 -10 44 -19 110 -2 14 -6 32 -9 40
-2 8 -10 35 -16 60 -20 75 -62 180 -72 180 -6 0 -8 4 -4 9 5 9 -35 91 -73 151
-9 14 -17 27 -17 30 0 3 -16 28 -34 55 -64 93 -212 252 -296 316 -16 13 -32
26 -35 29 -38 46 -400 230 -452 231 -4 0 -25 6 -47 14 -22 7 -42 11 -45 8 -3
-4 -6 -1 -6 6 0 7 -4 10 -8 7 -5 -3 -46 2 -93 10 -70 13 -341 27 -351 19z"/>
</g>
</svg>
